# xmcd
#
# Track frame offsets:
#	150
#	20526
#	37388
#	52889
#	73525
#	88552
#	107087
#	124502
#	138718
#	153949
#	170155
#	187167
#
# Disc length: 2815 seconds
#
# Revision: 0
# Processed by: cddbd v1.4PL0 Copyright (c) Steve Scherf et al.
# Submitted via: dBpowerAMP V4.0
#
DISCID=aa0afd0c
DTITLE=Troels Jensen - H. P. Lange - Take me Home
DYEAR=2002
DGENRE=Blues
TTITLE0=Blues Man
TTITLE1=Deprivation Blues
TTITLE2=She's Got A Hold On Me
TTITLE3=Take Me Home
TTITLE4=Creole Belle (Trad.)
TTITLE5=Poor Howard (Leadbelly)
TTITLE6=Pack Up And Go
TTITLE7=Walking Ad For Love
TTITLE8=How Long Blues (Leroy Carr)
TTITLE9=Need Somebody On Your Bond (Trad.)
TTITLE10=Woogie-Boogie
TTITLE11=City Of My Dreams
EXTD=All written by Troels Jensen - H. P. Lange\n
EXTT0=
EXTT1=
EXTT2=
EXTT3=
EXTT4=
EXTT5=
EXTT6=
EXTT7=
EXTT8=
EXTT9=
EXTT10=
EXTT11=
PLAYORDER=
